<svg xmlns="http://www.w3.org/2000/svg" viewBox="0 0 19 21" fill="none"><path fill="currentColor" fill-rule="evenodd" d="M7.91 1.726C8.133.723 8.76 0 9.5 0c.74 0 1.368.723 1.589 1.726a5.868 5.868 0 0 1 5.013 4.705l1.694 8.689 1.108 2.131a.84.84 0 0 1-.742 1.229H.838a.84.84 0 0 1-.742-1.229l1.108-2.131 1.694-8.689A5.868 5.868 0 0 1 7.91 1.726Zm2.443.794H8.647c-2.368 0-4.437 1.686-4.9 4.067l-1.695 8.69a.825.825 0 0 1-.077.222L.867 17.63a.035.035 0 0 0-.003.008v.002h17.272v-.002s0-.003-.003-.008L17.025 15.5a.827.827 0 0 1-.077-.223l-1.694-8.689c-.464-2.38-2.533-4.067-4.9-4.067Zm-1.538-.84h1.37c-.06-.19-.14-.354-.227-.486C9.752.884 9.571.84 9.5.84c-.07 0-.252.044-.458.354a1.957 1.957 0 0 0-.227.486Z" clip-rule="evenodd"/><path fill="currentColor" d="M7.773 18.48h-.864C6.91 19.872 8.07 21 9.5 21c1.43 0 2.59-1.128 2.59-2.52h-.863c0 .928-.773 1.68-1.727 1.68-.954 0-1.727-.752-1.727-1.68Z"/></svg>
