<svg xmlns="http://www.w3.org/2000/svg" viewBox="0 0 17 17" fill="none"><path fill="transparent" stroke="currentColor" d="M.5.74A.24.24 0 0 1 .74.5H7.39a.24.24 0 0 1 .24.24V7.39a.24.24 0 0 1-.24.24H.74A.24.24 0 0 1 .5 7.39V.74Zm0 8.869a.24.24 0 0 1 .24-.24H7.39a.24.24 0 0 1 .24.24v6.652a.24.24 0 0 1-.24.239H.74a.24.24 0 0 1-.239-.24V9.61ZM9.37.739A.24.24 0 0 1 9.609.5h6.652a.24.24 0 0 1 .239.24V7.39a.24.24 0 0 1-.24.24H9.61a.24.24 0 0 1-.24-.24V.74Zm0 8.87a.24.24 0 0 1 .239-.24h6.652a.24.24 0 0 1 .239.24v6.652a.24.24 0 0 1-.24.239H9.61a.24.24 0 0 1-.24-.24V9.61Z"/></svg>
